<?xml version="1.0" encoding="UTF-8" standalone="no"?>
<svg
   id="Black"
   viewBox="0 110 89.999995 90"
   version="1.1"
   sodipodi:docname="logocropped.svg"
   width="90"
   height="90"
   inkscape:version="1.1.2 (0a00cf5339, 2022-02-04)"
   xmlns:inkscape="http://www.inkscape.org/namespaces/inkscape"
   xmlns:sodipodi="http://sodipodi.sourceforge.net/DTD/sodipodi-0.dtd"
   xmlns="http://www.w3.org/2000/svg"
   xmlns:svg="http://www.w3.org/2000/svg"
   xmlns:rdf="http://www.w3.org/1999/02/22-rdf-syntax-ns#"
   xmlns:cc="http://creativecommons.org/ns#"
   xmlns:dc="http://purl.org/dc/elements/1.1/">
  <sodipodi:namedview
     id="namedview942"
     pagecolor="#ffffff"
     bordercolor="#666666"
     borderopacity="1.0"
     inkscape:pageshadow="2"
     inkscape:pageopacity="0.0"
     inkscape:pagecheckerboard="true"
     showgrid="false"
     inkscape:zoom="3.2404919"
     inkscape:cx="195.18642"
     inkscape:cy="143.80533"
     inkscape:window-width="2560"
     inkscape:window-height="1415"
     inkscape:window-x="2560"
     inkscape:window-y="0"
     inkscape:window-maximized="1"
     inkscape:current-layer="Black" />
  <defs
     id="defs909">
    <style
       id="style907">.cls-1{fill:#f1f5f9;}</style>
    <clipPath
       clipPathUnits="userSpaceOnUse"
       id="clipPath1562">
      <rect
         style="fill:#6699ff;fill-opacity:0.519409;stroke-width:7.93701;stroke-linecap:round;stroke-dasharray:7.93701, 15.874"
         id="rect1564"
         width="92.929924"
         height="92.929924"
         x="81.084496"
         y="162.05412" />
    </clipPath>
    <clipPath
       clipPathUnits="userSpaceOnUse"
       id="clipPath1566">
      <rect
         style="fill:#6699ff;fill-opacity:0.519409;stroke-width:7.93701;stroke-linecap:round;stroke-dasharray:7.93701, 15.874"
         id="rect1568"
         width="92.929924"
         height="92.929924"
         x="81.084496"
         y="162.05412" />
    </clipPath>
    <clipPath
       clipPathUnits="userSpaceOnUse"
       id="clipPath1570">
      <rect
         style="fill:#6699ff;fill-opacity:0.519409;stroke-width:7.93701;stroke-linecap:round;stroke-dasharray:7.93701, 15.874"
         id="rect1572"
         width="92.929924"
         height="92.929924"
         x="81.084496"
         y="162.05412" />
    </clipPath>
    <clipPath
       clipPathUnits="userSpaceOnUse"
       id="clipPath1574">
      <rect
         style="fill:#6699ff;fill-opacity:0.519409;stroke-width:7.93701;stroke-linecap:round;stroke-dasharray:7.93701, 15.874"
         id="rect1576"
         width="92.929924"
         height="92.929924"
         x="81.084496"
         y="162.05412" />
    </clipPath>
    <clipPath
       clipPathUnits="userSpaceOnUse"
       id="clipPath1578">
      <rect
         style="fill:#6699ff;fill-opacity:0.519409;stroke-width:7.93701;stroke-linecap:round;stroke-dasharray:7.93701, 15.874"
         id="rect1580"
         width="92.929924"
         height="92.929924"
         x="81.084496"
         y="162.05412" />
    </clipPath>
    <clipPath
       clipPathUnits="userSpaceOnUse"
       id="clipPath1582">
      <rect
         style="fill:#6699ff;fill-opacity:0.519409;stroke-width:7.93701;stroke-linecap:round;stroke-dasharray:7.93701, 15.874"
         id="rect1584"
         width="92.929924"
         height="92.929924"
         x="81.084496"
         y="162.05412" />
    </clipPath>
    <clipPath
       clipPathUnits="userSpaceOnUse"
       id="clipPath1586">
      <rect
         style="fill:#6699ff;fill-opacity:0.519409;stroke-width:7.93701;stroke-linecap:round;stroke-dasharray:7.93701, 15.874"
         id="rect1588"
         width="92.929924"
         height="92.929924"
         x="81.084496"
         y="162.05412" />
    </clipPath>
    <clipPath
       clipPathUnits="userSpaceOnUse"
       id="clipPath1590">
      <rect
         style="fill:#6699ff;fill-opacity:0.519409;stroke-width:7.93701;stroke-linecap:round;stroke-dasharray:7.93701, 15.874"
         id="rect1592"
         width="92.929924"
         height="92.929924"
         x="81.084496"
         y="162.05412" />
    </clipPath>
    <clipPath
       clipPathUnits="userSpaceOnUse"
       id="clipPath1594">
      <rect
         style="fill:#6699ff;fill-opacity:0.519409;stroke-width:7.93701;stroke-linecap:round;stroke-dasharray:7.93701, 15.874"
         id="rect1596"
         width="92.929924"
         height="92.929924"
         x="81.084496"
         y="162.05412" />
    </clipPath>
    <clipPath
       clipPathUnits="userSpaceOnUse"
       id="clipPath1598">
      <rect
         style="fill:#6699ff;fill-opacity:0.519409;stroke-width:7.93701;stroke-linecap:round;stroke-dasharray:7.93701, 15.874"
         id="rect1600"
         width="92.929924"
         height="92.929924"
         x="81.084496"
         y="162.05412" />
    </clipPath>
    <clipPath
       clipPathUnits="userSpaceOnUse"
       id="clipPath1602">
      <rect
         style="fill:#6699ff;fill-opacity:0.519409;stroke-width:7.93701;stroke-linecap:round;stroke-dasharray:7.93701, 15.874"
         id="rect1604"
         width="92.929924"
         height="92.929924"
         x="81.084496"
         y="162.05412" />
    </clipPath>
    <clipPath
       clipPathUnits="userSpaceOnUse"
       id="clipPath1606">
      <rect
         style="fill:#6699ff;fill-opacity:0.519409;stroke-width:7.93701;stroke-linecap:round;stroke-dasharray:7.93701, 15.874"
         id="rect1608"
         width="92.929924"
         height="92.929924"
         x="81.084496"
         y="162.05412" />
    </clipPath>
    <clipPath
       clipPathUnits="userSpaceOnUse"
       id="clipPath1610">
      <rect
         style="fill:#6699ff;fill-opacity:0.519409;stroke-width:7.93701;stroke-linecap:round;stroke-dasharray:7.93701, 15.874"
         id="rect1612"
         width="92.929924"
         height="92.929924"
         x="81.084496"
         y="162.05412" />
    </clipPath>
    <clipPath
       clipPathUnits="userSpaceOnUse"
       id="clipPath1614">
      <rect
         style="fill:#6699ff;fill-opacity:0.519409;stroke-width:7.93701;stroke-linecap:round;stroke-dasharray:7.93701, 15.874"
         id="rect1616"
         width="92.929924"
         height="92.929924"
         x="81.084496"
         y="162.05412" />
    </clipPath>
  </defs>
  <title
     id="title911">Horizontaled_Black</title>
  <path
     class="cls-1"
     d="m 237.05,194.69 q 0,-21.88 -30.19,-21.89 h -24.27 v 74.08 h 20 v -27 h 5.07 l 15.71,27 h 22.69 L 224.49,214.6 q 12.57,-7.03 12.56,-19.91 z m -30.7,10.18 H 202.6 V 188 h 4 q 10.29,0 10.29,7.65 -0.05,9.22 -10.54,9.22 z"
     id="path913"
     clip-path="url(#clipPath1614)" />
  <path
     class="cls-1"
     d="m 295.78,216.17 q 0,8 -2.77,11.53 -2.77,3.53 -8.89,3.52 -5.72,0 -8.66,-3.55 -2.94,-3.55 -2.94,-11.4 V 172.8 h -20.11 v 45 q 0,14.53 8.13,22.29 8.13,7.76 23.28,7.75 15.51,0 23.74,-8 8.23,-8 8.23,-22.52 V 172.8 h -20 z"
     id="path915"
     clip-path="url(#clipPath1610)" />
  <path
     class="cls-1"
     d="m 364.33,188.15 a 28.57,28.57 0 0 1 8.81,1.32 69.17,69.17 0 0 1 8.21,3.24 L 387.48,177 a 52.64,52.64 0 0 0 -23,-5.22 37.59,37.59 0 0 0 -19.13,4.69 31,31 0 0 0 -12.46,13.4 44.83,44.83 0 0 0 -4.28,20.13 q 0,18.39 8.94,28.12 8.94,9.73 25.71,9.73 a 51.4,51.4 0 0 0 21,-4.1 v -16.89 a 93.71,93.71 0 0 1 -9.27,3.3 33.42,33.42 0 0 1 -9.53,1.36 q -16.26,0 -16.26,-21.38 0,-10.27 4,-16.13 a 12.77,12.77 0 0 1 11.13,-5.86 z"
     id="path917"
     clip-path="url(#clipPath1606)" />
  <rect
     class="cls-1"
     x="398.67999"
     y="172.8"
     width="20.110001"
     height="74.07"
     id="rect919"
     clip-path="url(#clipPath1602)" />
  <path
     class="cls-1"
     d="m 495,181.31 q -9.12,-9.67 -26.81,-9.67 -17.69,0 -26.88,9.75 -9.24,9.75 -9.24,28.25 0,18.69 9.3,28.47 9.3,9.78 26.72,9.78 17.69,0 26.85,-9.73 9.16,-9.73 9.18,-28.42 0,-18.74 -9.12,-28.43 z M 479.37,226 q -3.67,5.22 -11.28,5.22 -14.94,0 -14.94,-21.48 0,-21.69 15,-21.69 7.4,0 11.12,5.3 3.72,5.3 3.73,16.39 0,11.04 -3.63,16.26 z"
     id="path921"
     clip-path="url(#clipPath1598)" />
  <path
     class="cls-1"
     d="m 164.12,233.55 v 9.26 a 1.79,1.79 0 0 1 -1.79,1.78 H 96.24 a 1.78,1.78 0 0 1 -1.78,-1.78 h -3.3 a 5.09,5.09 0 0 0 5.08,5.08 h 66.09 a 5.09,5.09 0 0 0 5.08,-5.08 v -12.22 a 11.6,11.6 0 0 1 -3.29,2.96 z"
     id="path923"
     clip-path="url(#clipPath1594)"
     transform="translate(-83.473852,-52.651303)" />
  <path
     class="cls-1"
     d="m 164.12,176.72 v 36.8 a 11.57,11.57 0 0 1 3.29,3 v -39.8 a 5.09,5.09 0 0 0 -5.08,-5.08 h -37.15 v 3.29 h 37.15 a 1.79,1.79 0 0 1 1.79,1.79 z"
     id="path925"
     clip-path="url(#clipPath1590)"
     transform="translate(-83.473852,-52.651303)" />
  <path
     class="cls-1"
     d="m 162.92,215.14 -8.4,-4.84 v 0 L 145,204.79 v 0 a 11,11 0 0 0 -15,4 l -18.8,32.51 h 25.45 l 9.35,-16.17 3,1.72 a 9.7,9.7 0 1 0 14,-11.71 z m -19.36,-4.83 a 4,4 0 1 1 1.46,5.45 4,4 0 0 1 -1.46,-5.45 z m 22.37,17.77 a 9.07,9.07 0 0 1 -16.38,-1.44 l -0.08,-0.21 -0.2,-0.12 -3,-1.72 2.74,-4.74 c 0.11,-0.19 0.22,-0.39 0.31,-0.58 l 4.87,-8.43 8.4,4.84 a 9.09,9.09 0 0 1 3.34,12.4 z"
     id="path927"
     clip-path="url(#clipPath1586)"
     transform="translate(-83.473852,-52.651303)" />
  <circle
     class="cls-1"
     cx="164.08"
     cy="223.16"
     r="1.7"
     id="circle929"
     clip-path="url(#clipPath1582)"
     transform="translate(-83.473852,-52.651303)" />
  <path
     class="cls-1"
     d="m 110.09,238.4 -2.69,-1.55 1.56,-2.7 2.69,1.56 z m 3.11,-5.4 -2.69,-1.55 1.56,-2.69 2.69,1.55 z m 3.11,-5.38 -2.69,-1.56 1.56,-2.69 2.69,1.56 z m 3.11,-5.39 -2.69,-1.55 1.55,-2.69 2.7,1.55 z m 3.11,-5.38 -2.69,-1.56 1.55,-2.69 2.7,1.56 z m 3.11,-5.39 -2.64,-1.54 1.55,-2.69 2.7,1.55 z m 3.1,-5.17 -2.49,-1.86 a 15.84,15.84 0 0 1 2.32,-2.52 l 2.05,2.33 a 13.07,13.07 0 0 0 -1.88,2.06 z m 17.47,-3.59 a 13.72,13.72 0 0 0 -2.54,-1.14 l 1,-2.95 a 15.85,15.85 0 0 1 3.12,1.4 z m -13.32,-0.07 -1.53,-2.71 a 17.13,17.13 0 0 1 3.14,-1.36 l 0.94,3 a 14,14 0 0 0 -2.55,1.08 z M 141,201 a 12.92,12.92 0 0 0 -2.78,0 l -0.31,-3.1 a 16.29,16.29 0 0 1 3.42,0 z"
     id="path931"
     clip-path="url(#clipPath1578)"
     transform="translate(-83.473852,-52.651303)" />
  <path
     class="cls-1"
     d="m 111.56,181.07 a 0.68,0.68 0 0 1 0.69,-1.1 19.34,19.34 0 0 1 14.68,17.5 0.68,0.68 0 0 1 -1.2,0.48 z"
     id="path933"
     clip-path="url(#clipPath1574)"
     transform="translate(-83.473852,-52.651303)" />
  <path
     class="cls-1"
     d="m 96.6,189.58 a 0.86,0.86 0 0 0 -1.22,1.09 24.49,24.49 0 0 0 25.09,14.48 0.86,0.86 0 0 0 0.33,-1.6 z"
     id="path935"
     clip-path="url(#clipPath1570)"
     transform="translate(-83.473852,-52.651303)" />
  <circle
     class="cls-1"
     cx="149.3"
     cy="212.22"
     r="1.7"
     id="circle937"
     clip-path="url(#clipPath1566)"
     transform="translate(-83.473852,-52.651303)" />
  <path
     class="cls-1"
     d="m 166,228.18 a 48.63,48.63 0 0 1 -9,-0.84 l -0.3,1.57 a 49.3,49.3 0 0 0 8.15,0.86 9.46,9.46 0 0 0 1.18,-1.55 z"
     id="path939"
     clip-path="url(#clipPath1562)"
     transform="translate(-83.473852,-52.651303)" />
  <metadata
     id="metadata1618">
    <rdf:RDF>
      <cc:Work
         rdf:about="">
        <dc:title>Horizontaled_Black</dc:title>
      </cc:Work>
    </rdf:RDF>
  </metadata>
</svg>
