<?xml version="1.0" encoding="utf-8"?>
<!-- Generator: Adobe Illustrator 28.1.0, SVG Export Plug-In . SVG Version: 6.00 Build 0)  -->
<svg version="1.1"
	 id="Black" xmlns:cc="http://creativecommons.org/ns#" xmlns:dc="http://purl.org/dc/elements/1.1/" xmlns:sodipodi="http://sodipodi.sourceforge.net/DTD/sodipodi-0.dtd" xmlns:rdf="http://www.w3.org/1999/02/22-rdf-syntax-ns#" xmlns:inkscape="http://www.inkscape.org/namespaces/inkscape" xmlns:svg="http://www.w3.org/2000/svg"
	 xmlns="http://www.w3.org/2000/svg" xmlns:xlink="http://www.w3.org/1999/xlink" x="0px" y="0px" viewBox="0 0 90 90"
	 style="enable-background:new 0 0 90 90;" xml:space="preserve">
<style type="text/css">
	.st0{fill:none;stroke:#FFFFFF;stroke-width:1.5;stroke-miterlimit:10;}
	.st1{fill:none;}
	.st2{clip-path:url(#SVGID_00000000185275052644769830000013151746304174178444_);fill:#F1F5F9;}
	.st3{clip-path:url(#SVGID_00000164491873591484695060000017781987653162969255_);fill:#F1F5F9;}
	.st4{clip-path:url(#SVGID_00000055680628380204731340000001585535257883864966_);fill:#F1F5F9;}
	.st5{clip-path:url(#SVGID_00000178201550676583312830000002490922547254918812_);}
	.st6{fill:#FFFFFF;}
	.st7{clip-path:url(#SVGID_00000115480045037265382040000013731665804703953590_);}
</style>
<sodipodi:namedview  bordercolor="#666666" borderopacity="1.0" id="namedview942" inkscape:current-layer="Black" inkscape:cx="195.18642" inkscape:cy="143.80533" inkscape:pagecheckerboard="true" inkscape:pageopacity="0.0" inkscape:pageshadow="2" inkscape:window-height="1415" inkscape:window-maximized="1" inkscape:window-width="2560" inkscape:window-x="2560" inkscape:window-y="0" inkscape:zoom="3.2404919" pagecolor="#ffffff" showgrid="false">
	</sodipodi:namedview>
<path id="_x31_23" class="st0" d="M71.5,45.7L62,40.2c-5.2-3-12-1.2-15,4L28.2,76.7h25.4L63,60.5 M78.4,68 M83.8,63.8
	c-2.6,4.6-8.4,6.1-13,3.5c-1.9-1.1-3.4-2.9-4.2-5l-0.1-0.2L66.3,62l-3.1-1.8l2.9-5c0.1-0.2,0.2-0.4,0.3-0.6l5.1-8.9l8.8,5.1
	C84.8,53.4,86.4,59.2,83.8,63.8L83.8,63.8z M67.4,52.8"/>
<rect x="-1.9" y="-2.5" class="st1" width="92.9" height="92.9"/>
<g>
	<defs>
		<rect id="SVGID_1_" x="-1.9" y="-2.5" width="92.9" height="92.9"/>
	</defs>
	<clipPath id="SVGID_00000119078286352185343890000000418817882382010806_">
		<use xlink:href="#SVGID_1_"  style="overflow:visible;"/>
	</clipPath>
	<path id="path923" style="clip-path:url(#SVGID_00000119078286352185343890000000418817882382010806_);fill:#F1F5F9;" d="
		M81.1,68.9v9.3c0,1-0.8,1.8-1.8,1.8H13.2c-1,0-1.8-0.8-1.8-1.8H8.1c0,2.8,2.3,5.1,5.1,5.1h66.1c2.8,0,5.1-2.3,5.1-5.1V66
		C83.5,67.2,82.4,68.2,81.1,68.9z"/>
</g>
<g>
	<defs>
		<rect id="SVGID_00000013901827037532009000000005864913473442283939_" x="-1.9" y="-2.5" width="92.9" height="92.9"/>
	</defs>
	<clipPath id="SVGID_00000005981698896827115930000011079790462740163970_">
		<use xlink:href="#SVGID_00000013901827037532009000000005864913473442283939_"  style="overflow:visible;"/>
	</clipPath>
	<path id="path925" style="clip-path:url(#SVGID_00000005981698896827115930000011079790462740163970_);fill:#F1F5F9;" d="
		M81.1,12.1v36.8c1.3,0.8,2.4,1.8,3.3,3V12.1c0-2.8-2.3-5.1-5.1-5.1H42.1v3.3h37.2C80.3,10.3,81.1,11.1,81.1,12.1L81.1,12.1z"/>
</g>
<g>
	<defs>
		<rect id="SVGID_00000077282837425409563650000011904556358143225005_" x="-1.9" y="-2.5" width="92.9" height="92.9"/>
	</defs>
	<clipPath id="SVGID_00000176732679073666135040000013513732868104191900_">
		<use xlink:href="#SVGID_00000077282837425409563650000011904556358143225005_"  style="overflow:visible;"/>
	</clipPath>
	<path id="path931" style="clip-path:url(#SVGID_00000176732679073666135040000013513732868104191900_);fill:#F1F5F9;" d="
		M27.1,73.8l-2.7-1.6l1.6-2.7l2.7,1.6L27.1,73.8z M30.2,68.4l-2.7-1.6l1.6-2.7l2.7,1.6L30.2,68.4z M33.3,63l-2.7-1.6l1.6-2.7
		l2.7,1.6L33.3,63z M36.4,57.6l-2.7-1.6l1.6-2.7l2.7,1.6L36.4,57.6z M39.5,52.2l-2.7-1.6l1.6-2.7l2.7,1.6L39.5,52.2z M42.6,46.9
		L40,45.3l1.6-2.7l2.7,1.6L42.6,46.9z M45.7,41.7l-2.5-1.9c0.7-0.9,1.5-1.8,2.3-2.5l2.1,2.3C46.9,40.3,46.3,40.9,45.7,41.7
		L45.7,41.7z M63.2,38.1c-0.8-0.5-1.7-0.8-2.5-1.1l1-2.9c1.1,0.4,2.1,0.8,3.1,1.4L63.2,38.1z M49.9,38l-1.5-2.7c1-0.6,2.1-1,3.1-1.4
		l0.9,3C51.5,37.2,50.7,37.6,49.9,38L49.9,38z M58,36.4c-0.9-0.1-1.9-0.1-2.8,0l-0.3-3.1c1.1-0.1,2.3-0.1,3.4,0L58,36.4z"/>
</g>
<g>
	<defs>
		<rect id="SVGID_00000103243503020625058930000000550668017229146548_" x="-1.9" y="-2.5" width="92.9" height="92.9"/>
	</defs>
	<clipPath id="SVGID_00000083777692206228215260000005517089058463512977_">
		<use xlink:href="#SVGID_00000103243503020625058930000000550668017229146548_"  style="overflow:visible;"/>
	</clipPath>
	<g id="path933" style="clip-path:url(#SVGID_00000083777692206228215260000005517089058463512977_);">
		<path class="st6" d="M31.5,17.7c5.3,2.2,9.2,6.9,10.5,12.5L31.5,17.7 M29,15.3c-0.2,0-0.3,0.1-0.4,0.2c-0.3,0.2-0.3,0.7-0.1,1
			l14.2,16.9c0.1,0.2,0.3,0.2,0.5,0.2c0,0,0,0,0,0c0.4,0,0.7-0.3,0.6-0.7c-0.6-8.4-6.5-15.5-14.7-17.5C29.2,15.4,29.1,15.3,29,15.3
			L29,15.3z"/>
	</g>
</g>
<g>
	<defs>
		<rect id="SVGID_00000058574431188709972230000017354267694343325337_" x="-1.9" y="-2.5" width="92.9" height="92.9"/>
	</defs>
	<clipPath id="SVGID_00000050657604186042270690000003659351601250460576_">
		<use xlink:href="#SVGID_00000058574431188709972230000017354267694343325337_"  style="overflow:visible;"/>
	</clipPath>
	<g id="path935" style="clip-path:url(#SVGID_00000050657604186042270690000003659351601250460576_);">
		<path class="st6" d="M14.6,27.3l20.5,11.9c-0.1,0-0.3,0-0.4,0C26.3,39.2,18.7,34.6,14.6,27.3 M13.1,24.9c-0.3,0-0.6,0.2-0.7,0.4
			c-0.1,0.2-0.2,0.5,0,0.8c3.9,9,12.8,14.6,22.4,14.6c0.9,0,1.8,0,2.7-0.1c0.5-0.1,0.8-0.5,0.8-1c0-0.3-0.2-0.5-0.4-0.6L13.6,25
			C13.4,24.9,13.3,24.9,13.1,24.9L13.1,24.9z"/>
	</g>
</g>
<path class="st6" d="M80.4,51.1l-8.7-4.9l-5,8.5c-0.1,0.2-0.2,0.4-0.3,0.6l-2.8,4.8l3.1,1.7l0.2,0.1l0.1,0.2c0.8,2,2.2,3.7,4.1,4.8
	c4.5,2.5,10.2,1,12.8-3.4l0,0C86.4,59.3,84.8,53.7,80.4,51.1z M80.9,56.6c0.9,0,1.7,0.8,1.7,1.7S81.8,60,80.9,60s-1.7-0.8-1.7-1.7
	S79.9,56.6,80.9,56.6z M81.7,64.9c-2.7-0.1-5.5-0.3-8.2-0.9l0.3-1.6c3,0.6,6,0.8,9,0.8l0,0C82.5,63.9,82.1,64.4,81.7,64.9z"/>
<path class="st6" d="M65.8,44.2c-2-1.2-4.6-0.5-5.8,1.6c-1.2,2-0.5,4.6,1.5,5.8c0,0,0,0,0,0c2,1.2,4.6,0.5,5.8-1.6
	S67.9,45.4,65.8,44.2z M65.8,49.7c-0.9,0-1.7-0.8-1.7-1.7c0-0.9,0.8-1.7,1.7-1.7c0.9,0,1.7,0.8,1.7,1.7
	C67.5,48.9,66.8,49.7,65.8,49.7z"/>
</svg>
